# WaveFront *.obj file (generated by Autodesk ATF)

mtllib hexagon v4.mtl

g Body1

v -0.000000 -8.082904 0.000000
v 7.000000 -4.041452 0.000000
v 7.000000 -4.041452 0.500000
v -0.000000 -8.082904 0.500000
v -7.000000 -4.041452 0.000000
v -7.000000 -4.041452 0.500000
v -7.000000 4.041452 0.000000
v -7.000000 4.041452 0.500000
v 0.000000 8.082904 0.000000
v 0.000000 8.082904 0.500000
v 7.000000 4.041452 0.000000
v 7.000000 4.041452 0.500000
v -0.000000 0.000000 0.500000
v -0.000000 0.000000 0.000000
vt 0.000000 0.000000 0.000000
vt 8.082904 0.000000 0.000000
vt 0.000000 0.500000 0.000000
vt 8.082904 0.500000 0.000000
vt 0.000000 0.000000 0.000000
vt 8.082904 0.000000 0.000000
vt 0.000000 0.500000 0.000000
vt 8.082904 0.500000 0.000000
vt 0.000000 0.000000 0.000000
vt 8.082904 0.000000 0.000000
vt 0.000000 0.500000 0.000000
vt 8.082904 0.500000 0.000000
vt 0.000000 0.000000 0.000000
vt 8.082904 0.000000 0.000000
vt -0.000000 0.500000 0.000000
vt 8.082904 0.500000 0.000000
vt -0.000000 0.000000 0.000000
vt 8.082904 0.000000 0.000000
vt -0.000000 0.500000 0.000000
vt 8.082904 0.500000 0.000000
vt 0.000000 0.000000 0.000000
vt 8.082904 0.000000 0.000000
vt 0.000000 0.500000 0.000000
vt 8.082904 0.500000 0.000000
vt -0.000000 -8.082904 0.000000
vt 7.000000 -4.041452 0.000000
vt 0.000000 0.000000 0.000000
vt 7.000000 4.041452 0.000000
vt 0.000000 8.082904 0.000000
vt -7.000000 4.041452 0.000000
vt -7.000000 -4.041452 0.000000
vt -0.000000 8.082904 0.000000
vt -7.000000 4.041452 0.000000
vt 0.000000 0.000000 0.000000
vt -7.000000 -4.041452 0.000000
vt 0.000000 -8.082904 0.000000
vt 7.000000 -4.041452 0.000000
vt 7.000000 4.041452 0.000000
vn 0.500000 -0.866025 0.000000
vn 0.500000 -0.866025 0.000000
vn 0.500000 -0.866025 0.000000
vn 0.500000 -0.866025 0.000000
vn -0.500000 -0.866025 0.000000
vn -0.500000 -0.866025 0.000000
vn -0.500000 -0.866025 0.000000
vn -0.500000 -0.866025 0.000000
vn -1.000000 0.000000 0.000000
vn -1.000000 0.000000 0.000000
vn -1.000000 0.000000 0.000000
vn -1.000000 0.000000 0.000000
vn -0.500000 0.866025 0.000000
vn -0.500000 0.866025 0.000000
vn -0.500000 0.866025 0.000000
vn -0.500000 0.866025 0.000000
vn 0.500000 0.866025 -0.000000
vn 0.500000 0.866025 -0.000000
vn 0.500000 0.866025 -0.000000
vn 0.500000 0.866025 -0.000000
vn 1.000000 -0.000000 0.000000
vn 1.000000 -0.000000 0.000000
vn 1.000000 -0.000000 0.000000
vn 1.000000 -0.000000 0.000000
vn 0.000000 0.000000 1.000000
vn 0.000000 0.000000 1.000000
vn 0.000000 0.000000 1.000000
vn 0.000000 0.000000 1.000000
vn 0.000000 0.000000 1.000000
vn 0.000000 0.000000 1.000000
vn 0.000000 0.000000 1.000000
vn -0.000000 -0.000000 -1.000000
vn -0.000000 -0.000000 -1.000000
vn -0.000000 -0.000000 -1.000000
vn -0.000000 -0.000000 -1.000000
vn -0.000000 -0.000000 -1.000000
vn -0.000000 -0.000000 -1.000000
vn -0.000000 -0.000000 -1.000000
usemtl Steel_-_Satin
f 1/1/1 2/2/2 4/3/3
f 4/3/3 2/2/2 3/4/4
f 5/5/5 1/6/6 6/7/7
f 6/7/7 1/6/6 4/8/8
f 7/9/9 5/10/10 8/11/11
f 8/11/11 5/10/10 6/12/12
f 9/13/13 7/14/14 10/15/15
f 10/15/15 7/14/14 8/16/16
f 11/17/17 9/18/18 12/19/19
f 12/19/19 9/18/18 10/20/20
f 2/21/21 11/22/22 3/23/23
f 3/23/23 11/22/22 12/24/24
f 4/25/25 3/26/26 13/27/27
f 13/27/27 3/26/26 12/28/28
f 13/27/27 12/28/28 10/29/29
f 10/29/29 8/30/30 13/27/27
f 13/27/27 8/30/30 6/31/31
f 13/27/27 6/31/31 4/25/25
f 9/32/32 11/33/33 14/34/34
f 14/34/34 11/33/33 2/35/35
f 14/34/34 2/35/35 1/36/36
f 1/36/36 5/37/37 14/34/34
f 14/34/34 5/37/37 7/38/38
f 14/34/34 7/38/38 9/32/32
# 14 vertices
# 38 texture params
# 38 normals
# 24 facets

# 1 groups
